<svg width="16" height="16" viewBox="0 0 16 16" fill="none" xmlns="http://www.w3.org/2000/svg">
<path d="M12.5109 1.58791C12.2345 1.40172 11.8645 1.50224 11.696 1.7898C11.5247 2.08233 11.6272 2.45637 11.9054 2.65021C12.9467 3.37591 13.7629 4.37983 14.254 5.54958C14.8242 6.90792 14.9243 8.41396 14.5386 9.83412C14.1529 11.2543 13.3031 12.5092 12.1208 13.4042C10.9386 14.2993 9.49014 14.7844 8 14.7844C6.50986 14.7844 5.06136 14.2993 3.87916 13.4042C2.69695 12.5092 1.8471 11.2543 1.46143 9.83412C1.07575 8.41396 1.1758 6.90792 1.74605 5.54958C2.23713 4.37983 3.05328 3.37591 4.09459 2.65021C4.37275 2.45637 4.47534 2.08233 4.30396 1.7898C4.13549 1.50224 3.76553 1.40172 3.48913 1.58791C2.2085 2.45056 1.20568 3.66475 0.608966 5.08612C-0.0649672 6.69143 -0.183203 8.47129 0.272596 10.1497C0.728395 11.828 1.73276 13.3111 3.12991 14.3689C4.52706 15.4267 6.23893 16 8 16C9.76107 16 11.4729 15.4267 12.8701 14.3689C14.2672 13.3111 15.2716 11.828 15.7274 10.1497C16.1832 8.47129 16.065 6.69143 15.391 5.08612C14.7943 3.66475 13.7915 2.45056 12.5109 1.58791Z" fill="black"/>
<path d="M8.61538 0.615384C8.61538 0.275517 8.33986 0 8 0C7.66013 0 7.38461 0.275516 7.38461 0.615384V7.50044H8.61538V0.615384Z" fill="black"/>
</svg>
