<svg width="14" height="16" viewBox="0 0 14 16" fill="none" xmlns="http://www.w3.org/2000/svg">
<path d="M13.2271 11.0862C13.354 11.043 13.492 11.0448 13.6178 11.0912C13.7435 11.1376 13.8494 11.2258 13.9177 11.341C13.9859 11.4562 14.0122 11.5913 13.9922 11.7236C13.9723 11.8559 13.9072 11.9772 13.808 12.0673L13.7124 12.1371L7.29631 15.9193C7.20654 15.9721 7.10422 16 7 16C6.89578 16 6.79346 15.9721 6.70369 15.9193L0.287611 12.1371L0.191953 12.0673C0.092774 11.9772 0.0277261 11.8559 0.00776218 11.7236C-0.0122017 11.5913 0.014138 11.4562 0.0823459 11.341C0.150554 11.2258 0.256463 11.1376 0.382241 11.0912C0.508019 11.0448 0.645982 11.043 0.7729 11.0862L0.880223 11.1351L7 14.7428L13.1198 11.1351L13.2271 11.0862ZM13.2271 7.59496C13.354 7.55176 13.492 7.55351 13.6178 7.5999C13.7435 7.6463 13.8494 7.73452 13.9177 7.84971C13.9859 7.96489 14.0122 8.1 13.9922 8.23229C13.9723 8.36458 13.9072 8.48596 13.808 8.57601L13.7124 8.64583L7.29631 12.4281C7.20654 12.4809 7.10422 12.5087 7 12.5087C6.89578 12.5087 6.79346 12.4809 6.70369 12.4281L0.287611 8.64583L0.191953 8.57601C0.092774 8.48596 0.0277261 8.36458 0.00776218 8.23229C-0.0122017 8.1 0.014138 7.96489 0.0823459 7.84971C0.150554 7.73452 0.256463 7.6463 0.382241 7.5999C0.508019 7.55351 0.645982 7.55176 0.7729 7.59496L0.880223 7.64384L7 11.2515L13.1198 7.64384L13.2271 7.59496ZM6.77369 0.0456582C6.8575 0.0104288 6.9484 -0.00476158 7.03915 0.00130035C7.12989 0.00736228 7.21795 0.0345085 7.29631 0.0805709L13.7124 3.86279C13.8 3.91416 13.8726 3.98747 13.923 4.07544C13.9735 4.16342 14 4.26301 14 4.36437C14 4.46572 13.9735 4.56531 13.923 4.65329C13.8726 4.74127 13.8 4.81457 13.7124 4.86595L7.29631 8.64816C7.20654 8.70098 7.10422 8.72884 7 8.72884C6.89578 8.72884 6.79346 8.70098 6.70369 8.64816L0.287611 4.86595C0.200035 4.81457 0.127429 4.74127 0.0769828 4.65329C0.0265368 4.56531 0 4.46572 0 4.36437C0 4.26301 0.0265368 4.16342 0.0769828 4.07544C0.127429 3.98747 0.200035 3.91416 0.287611 3.86279L6.70369 0.0805709L6.77369 0.0456582ZM1.72948 4.3632L7 7.47044L12.2694 4.3632L7 1.25597L1.72948 4.3632Z" fill="black"/>
</svg>
