<svg width="8" height="8" viewBox="0 0 8 8" fill="none" xmlns="http://www.w3.org/2000/svg">
<path d="M1.7191 8C1.19476 8 0.775281 7.84815 0.460674 7.54445C0.153558 7.24074 0 6.83333 0 6.32222C0 5.78148 0.161049 5.36296 0.483146 5.06667C0.812734 4.76296 1.29588 4.61111 1.93258 4.61111H2.59551V3.38889H1.93258C1.29588 3.38889 0.812734 3.24074 0.483146 2.94444C0.161049 2.64074 0 2.21852 0 1.67778C0 1.16667 0.153558 0.759259 0.460674 0.455556C0.775281 0.151852 1.19476 0 1.7191 0C2.13858 0 2.46816 0.0777777 2.70787 0.233333C2.95506 0.388889 3.12734 0.596296 3.22472 0.855556C3.32959 1.11481 3.38202 1.4 3.38202 1.71111V2.63333H4.61798V1.71111C4.61798 1.4 4.66667 1.11481 4.76405 0.855556C4.86891 0.596296 5.0412 0.388889 5.2809 0.233333C5.52809 0.0777777 5.86142 0 6.2809 0C6.80524 0 7.22097 0.151852 7.52809 0.455556C7.8427 0.759259 8 1.16667 8 1.67778C8 2.21852 7.83895 2.64074 7.51685 2.94444C7.19476 3.24074 6.71161 3.38889 6.06742 3.38889H5.40449V4.61111H6.06742C6.71161 4.61111 7.19476 4.76296 7.51685 5.06667C7.83895 5.36296 8 5.78148 8 6.32222C8 6.83333 7.8427 7.24074 7.52809 7.54445C7.22097 7.84815 6.80524 8 6.2809 8C5.86142 8 5.52809 7.92222 5.2809 7.76667C5.0412 7.61111 4.86891 7.4037 4.76405 7.14444C4.66667 6.88519 4.61798 6.6 4.61798 6.28889V5.36667H3.38202V6.28889C3.38202 6.6 3.32959 6.88519 3.22472 7.14444C3.12734 7.4037 2.95506 7.61111 2.70787 7.76667C2.46816 7.92222 2.13858 8 1.7191 8ZM5.40449 1.68889V2.63333H6.06742C6.46442 2.63333 6.75281 2.55556 6.93258 2.4C7.11236 2.23704 7.20225 1.9963 7.20225 1.67778C7.20225 1.35185 7.11236 1.11852 6.93258 0.977778C6.7603 0.837037 6.54307 0.766667 6.2809 0.766667C5.98876 0.766667 5.76779 0.851852 5.61798 1.02222C5.47566 1.18519 5.40449 1.40741 5.40449 1.68889ZM1.93258 2.63333H2.59551V1.68889C2.59551 1.40741 2.5206 1.18519 2.37079 1.02222C2.22846 0.851852 2.01124 0.766667 1.7191 0.766667C1.45693 0.766667 1.23596 0.837037 1.05618 0.977778C0.883895 1.11852 0.797753 1.35185 0.797753 1.67778C0.797753 1.9963 0.887641 2.23704 1.06742 2.4C1.24719 2.55556 1.53558 2.63333 1.93258 2.63333ZM3.38202 4.61111H4.61798V3.38889H3.38202V4.61111ZM1.7191 7.23333C2.01124 7.23333 2.22846 7.15185 2.37079 6.98889C2.5206 6.81852 2.59551 6.59259 2.59551 6.31111V5.36667H1.93258C1.53558 5.36667 1.24719 5.44815 1.06742 5.61111C0.887641 5.76667 0.797753 6.0037 0.797753 6.32222C0.797753 6.64815 0.883895 6.88148 1.05618 7.02222C1.23596 7.16296 1.45693 7.23333 1.7191 7.23333ZM5.40449 6.31111C5.40449 6.59259 5.47566 6.81852 5.61798 6.98889C5.76779 7.15185 5.98876 7.23333 6.2809 7.23333C6.54307 7.23333 6.7603 7.16296 6.93258 7.02222C7.11236 6.88148 7.20225 6.64815 7.20225 6.32222C7.20225 6.0037 7.11236 5.76667 6.93258 5.61111C6.75281 5.44815 6.46442 5.36667 6.06742 5.36667H5.40449V6.31111Z" fill="#D6D8DB"/>
</svg>
