<svg width="16" height="14" viewBox="0 0 16 14" fill="none" xmlns="http://www.w3.org/2000/svg">
<path d="M1.06667 13.4615C1.06667 13.6043 1.01048 13.7413 0.910457 13.8423C0.810438 13.9433 0.674782 14 0.533333 14C0.391885 14 0.256229 13.9433 0.15621 13.8423C0.0561903 13.7413 0 13.6043 0 13.4615V0.538462C0 0.395653 0.0561903 0.258693 0.15621 0.157712C0.256229 0.0567306 0.391885 0 0.533333 0C0.674782 0 0.810438 0.0567306 0.910457 0.157712C1.01048 0.258693 1.06667 0.395653 1.06667 0.538462V13.4615ZM7.46667 7.53846C7.46667 7.82408 7.35429 8.098 7.15425 8.29996C6.95421 8.50192 6.6829 8.61539 6.4 8.61539H3.2C2.9171 8.61539 2.64579 8.50192 2.44575 8.29996C2.24571 8.098 2.13333 7.82408 2.13333 7.53846V6.46154C2.13333 6.17592 2.24571 5.902 2.44575 5.70004C2.64579 5.49808 2.9171 5.38462 3.2 5.38462H6.4C6.6829 5.38462 6.95421 5.49808 7.15425 5.70004C7.35429 5.902 7.46667 6.17592 7.46667 6.46154V7.53846ZM13.8667 7.53846C13.8667 7.82408 13.7543 8.098 13.5542 8.29996C13.3542 8.50192 13.0829 8.61539 12.8 8.61539H9.6C9.3171 8.61539 9.04579 8.50192 8.84575 8.29996C8.64571 8.098 8.53333 7.82408 8.53333 7.53846V6.46154C8.53333 6.17592 8.64571 5.902 8.84575 5.70004C9.04579 5.49808 9.3171 5.38462 9.6 5.38462H12.8C13.0829 5.38462 13.3542 5.49808 13.5542 5.70004C13.7543 5.902 13.8667 6.17592 13.8667 6.46154V7.53846ZM16 13.4615C16 13.6043 15.9438 13.7413 15.8438 13.8423C15.7438 13.9433 15.6081 14 15.4667 14C15.3252 14 15.1896 13.9433 15.0895 13.8423C14.9895 13.7413 14.9333 13.6043 14.9333 13.4615V0.538462C14.9333 0.395653 14.9895 0.258693 15.0895 0.157712C15.1896 0.0567306 15.3252 0 15.4667 0C15.6081 0 15.7438 0.0567306 15.8438 0.157712C15.9438 0.258693 16 0.395653 16 0.538462V13.4615Z" fill="black"/>
</svg>
