<svg width="16" height="16" viewBox="0 0 16 16" fill="none" xmlns="http://www.w3.org/2000/svg">
<path d="M7.90875 0C12.8523 0 16 4.01323 16 8C16 11.9868 12.8511 16 7.90875 16C5.54464 16 3.57475 15.0737 2.17308 13.6638L1.89932 13.375C1.37147 12.7868 0.932173 12.1264 0.594981 11.4141L0.436806 11.0556C0.380639 10.9182 0.377793 10.7651 0.428814 10.6257C0.479834 10.4862 0.581127 10.3704 0.713254 10.3003C0.845381 10.2302 0.999034 10.2108 1.14472 10.2459C1.29042 10.2809 1.41788 10.3679 1.50266 10.4902L1.56106 10.5985C1.86181 11.3218 2.28341 11.9899 2.80821 12.575L3.04061 12.8205C4.22327 14.0102 5.88289 14.797 7.90875 14.797C12.0943 14.797 14.7833 11.4105 14.7833 8C14.7833 4.58947 12.0943 1.20301 7.90875 1.20301C4.73308 1.20301 3.06616 3.38767 2.28624 4.74226L2.15118 4.99248H4.25856C4.4199 4.99248 4.57464 5.05585 4.68873 5.16866C4.80282 5.28146 4.86692 5.43446 4.86692 5.59399C4.86692 5.75351 4.80282 5.90651 4.68873 6.01931C4.57464 6.13212 4.4199 6.19549 4.25856 6.19549H0.608365C0.447017 6.19549 0.292277 6.13212 0.178186 6.01931C0.0640954 5.90651 0 5.75351 0 5.59399V1.98496C0 1.82543 0.0640954 1.67244 0.178186 1.55964C0.292277 1.44683 0.447017 1.38346 0.608365 1.38346C0.769714 1.38346 0.924454 1.44683 1.03854 1.55964C1.15263 1.67244 1.21673 1.82543 1.21673 1.98496V4.16481L1.21795 4.16361C2.07574 2.66947 4.05901 0 7.90875 0Z" fill="black"/>
</svg>
