<svg width="16" height="15" viewBox="0 0 16 15" fill="none" xmlns="http://www.w3.org/2000/svg">
<path d="M7.6681 0.217328C7.69531 0.152979 7.7413 0.0979967 7.80025 0.0593188C7.85921 0.020641 7.92849 0 7.99936 0C8.07024 0 8.13952 0.020641 8.19848 0.0593188C8.25743 0.0979967 8.30342 0.152979 8.33063 0.217328L10.2871 4.84378C10.3125 4.90373 10.3541 4.95565 10.4075 4.99383C10.4609 5.032 10.5239 5.05496 10.5897 5.06017L15.67 5.46001C15.7406 5.46559 15.808 5.49163 15.8636 5.53484C15.9192 5.57805 15.9606 5.63649 15.9825 5.7028C16.0044 5.7691 16.0058 5.84029 15.9865 5.90738C15.9673 5.97447 15.9283 6.03446 15.8745 6.07977L15.5994 6.3091L12.0045 9.34087C11.9546 9.38289 11.9174 9.43757 11.8969 9.49895C11.8765 9.56034 11.8736 9.62606 11.8885 9.68897L12.9875 14.219L13.0712 14.5647C13.0856 14.6234 13.0844 14.6846 13.0678 14.7427C13.0512 14.8007 13.0197 14.8536 12.9764 14.8963C12.9331 14.939 12.8794 14.9701 12.8204 14.9866C12.7615 15.003 12.6992 15.0044 12.6395 14.9905L12.5355 14.9469L12.2269 14.7611L8.18593 12.3362C8.12972 12.3025 8.06517 12.2847 7.99936 12.2847C7.93356 12.2847 7.86901 12.3025 7.8128 12.3362L3.46327 14.9469L3.35922 14.9905C3.29956 15.0044 3.23727 15.003 3.17828 14.9866C3.1193 14.9701 3.06559 14.939 3.02229 14.8963C2.97899 14.8536 2.94755 14.8007 2.93095 14.7427C2.91435 14.6846 2.91317 14.6234 2.9275 14.5647L3.01121 14.219L4.11145 9.68897C4.12259 9.6419 4.12377 9.59308 4.11492 9.54554C4.10607 9.498 4.08739 9.45275 4.06003 9.41261L3.99425 9.34087L0.124277 6.0786C0.0708191 6.0332 0.0321778 5.97329 0.0131968 5.90639C-0.00578417 5.83949 -0.00426037 5.76856 0.0175772 5.70251C0.0394149 5.63645 0.0805946 5.5782 0.135955 5.53507C0.191315 5.49193 0.258392 5.46582 0.328778 5.46001L0.687552 5.43061L5.40902 5.05899C5.45801 5.0552 5.50569 5.04155 5.54909 5.0189C5.5925 4.99624 5.63071 4.96506 5.66135 4.92728L5.71158 4.8426L7.6681 0.217328ZM6.81541 5.29537C6.71981 5.52169 6.57027 5.7221 6.37942 5.87969C6.18856 6.03729 5.96198 6.14745 5.71876 6.2009L5.50349 6.23266L2.43 6.47374L4.77279 8.4471L4.92706 8.59645C5.2105 8.9128 5.34922 9.33264 5.30856 9.75248L5.27268 9.96298L4.55753 12.9113L7.18854 11.3319L7.38108 11.2343C7.57623 11.1511 7.78667 11.1082 7.99936 11.1082C8.21206 11.1082 8.4225 11.1511 8.61765 11.2343L8.809 11.3319L11.44 12.9113L10.7249 9.96298C10.6584 9.68915 10.6702 9.4026 10.7588 9.13491C10.8474 8.86723 11.0095 8.6288 11.2271 8.44592L13.5675 6.47374L10.4952 6.23266C10.2466 6.21314 10.0065 6.1351 9.79501 6.00512C9.58354 5.87515 9.40696 5.69706 9.28019 5.48589L9.18451 5.29537L8.00056 2.49645L6.81541 5.29537Z" fill="black"/>
</svg>
