<svg width="16" height="15" viewBox="0 0 16 15" fill="none" xmlns="http://www.w3.org/2000/svg">
<path d="M7.66872 0.217307C7.69593 0.152964 7.74191 0.0979872 7.80086 0.0593131C7.85981 0.020639 7.92909 0 7.99996 0C8.07082 0 8.1401 0.020639 8.19905 0.0593131C8.258 0.0979872 8.30398 0.152964 8.33119 0.217307L10.2875 4.84331C10.313 4.90303 10.3547 4.9547 10.4081 4.99266C10.4614 5.03062 10.5244 5.0534 10.5901 5.0585L15.6698 5.45831C15.7406 5.46386 15.8082 5.48997 15.8639 5.53333C15.9196 5.57669 15.961 5.63534 15.9827 5.70184C16.0045 5.76835 16.0057 5.83971 15.9862 5.90689C15.9667 5.97407 15.9273 6.03403 15.8731 6.07918L12.0059 9.33996C11.9556 9.38218 11.9181 9.43725 11.8976 9.49909C11.8772 9.56093 11.8745 9.62713 11.8899 9.69038L13.0737 14.5633C13.0907 14.6314 13.0866 14.703 13.062 14.7688C13.0375 14.8346 12.9935 14.8918 12.9357 14.9329C12.878 14.9741 12.8091 14.9973 12.7378 14.9998C12.6665 15.0022 12.5961 14.9837 12.5356 14.9467L8.1877 12.335C8.13149 12.3013 8.06695 12.2835 8.00115 12.2835C7.93535 12.2835 7.87081 12.3013 7.81461 12.335L3.4655 14.9467C3.40499 14.983 3.3349 15.0008 3.26408 14.998C3.19326 14.9952 3.12488 14.9718 3.06757 14.9308C3.01025 14.8898 2.96658 14.833 2.94206 14.7676C2.91754 14.7022 2.91326 14.6311 2.92978 14.5633L4.11242 9.69038C4.12781 9.62713 4.12513 9.56093 4.10466 9.49909C4.08419 9.43725 4.04673 9.38218 3.99643 9.33996L0.125639 6.08036C0.0718251 6.03512 0.0328254 5.97524 0.013551 5.90825C-0.00572336 5.84126 -0.00441065 5.77016 0.017324 5.70391C0.0390586 5.63765 0.0802432 5.5792 0.135692 5.53591C0.19114 5.49263 0.258373 5.46644 0.328925 5.46066L5.40986 5.06085C5.47565 5.05564 5.5387 5.03269 5.59208 4.99452C5.64546 4.95634 5.68709 4.90443 5.7124 4.84448L7.66872 0.217307Z" fill="black"/>
</svg>
